<?xml version="1.0" encoding="UTF-8"?> <svg xmlns="http://www.w3.org/2000/svg" id="Layer_1" data-name="Layer 1" viewBox="0 0 310 162"><defs><style>.cls-1{fill:#00497b;}.cls-2{fill:#f3a51d;}</style></defs><title>Artboard 1</title><path class="cls-1" d="M148.87,52.4a26.36,26.36,0,1,0,26.36,26.36A26.36,26.36,0,0,0,148.87,52.4Z"></path><path class="cls-1" d="M104.94,81.88h8.71c-.09-1-.14-2.07-.14-3.12a35.36,35.36,0,1,1,70.72,0c0,1-.06,2.09-.14,3.12h35V58.58L200.78,79l-13.39,0L219.1,43.6v-.2h10V81.88h18.6L232.56,20a8.91,8.91,0,0,0-10.78-6.51L104.94,42.66Z"></path><path class="cls-1" d="M219.1,90.37H182.27a35.36,35.36,0,0,1-66.8,0H104.94v23.75h-10V90.37h-32V81.88h32V58.58L76.61,79l-13.4,0L93.12,45.63,48.83,56.69a8.9,8.9,0,0,0-6.51,10.77l18.39,75.11a8.91,8.91,0,0,0,10.77,6.51L219.1,112.19Z"></path><path class="cls-1" d="M249.79,90.37H229.11v19.32l15.33-3.83A8.91,8.91,0,0,0,251,95.09Z"></path><polygon class="cls-2" points="261.43 96.95 271.65 86.73 261.43 76.5 261.43 96.95"></polygon><polygon class="cls-2" points="281.88 86.73 271.65 76.5 271.65 86.73 271.65 96.95 281.88 86.73"></polygon><path class="cls-2" d="M149.14,60.57a17.8,17.8,0,1,0,17.8,17.8A17.79,17.79,0,0,0,149.14,60.57Z"></path></svg> 