<?xml version="1.0" encoding="UTF-8" standalone="no"?>
<svg
   xmlns:dc="http://purl.org/dc/elements/1.1/"
   xmlns:cc="http://creativecommons.org/ns#"
   xmlns:rdf="http://www.w3.org/1999/02/22-rdf-syntax-ns#"
   xmlns:svg="http://www.w3.org/2000/svg"
   xmlns="http://www.w3.org/2000/svg"
   xmlns:sodipodi="http://sodipodi.sourceforge.net/DTD/sodipodi-0.dtd"
   xmlns:inkscape="http://www.inkscape.org/namespaces/inkscape"
   version="1.1"
   id="Layer_1"
   x="0px"
   y="0px"
   viewBox="0 0 625 112"
   xml:space="preserve"
   sodipodi:docname="make3d.svg"
   width="625"
   height="112"
   inkscape:version="1.0.1 (3bc2e813f5, 2020-09-07)"><metadata
   id="metadata39"><rdf:RDF><cc:Work
       rdf:about=""><dc:format>image/svg+xml</dc:format><dc:type
         rdf:resource="http://purl.org/dc/dcmitype/StillImage" /><dc:title /></cc:Work></rdf:RDF></metadata><defs
   id="defs37">
	
	
	
	
	
	
	
	
	
	
	
	
	
	
</defs><sodipodi:namedview
   pagecolor="#ffffff"
   bordercolor="#666666"
   borderopacity="1"
   objecttolerance="10"
   gridtolerance="10"
   guidetolerance="10"
   inkscape:pageopacity="0"
   inkscape:pageshadow="2"
   inkscape:window-width="1920"
   inkscape:window-height="999"
   id="namedview35"
   showgrid="false"
   inkscape:zoom="1.6226415"
   inkscape:cx="383.43738"
   inkscape:cy="165.76145"
   inkscape:window-x="0"
   inkscape:window-y="0"
   inkscape:window-maximized="1"
   inkscape:current-layer="Layer_1"
   inkscape:document-rotation="0" />
<style
   type="text/css"
   id="style2">
	.st0{fill:#1DE9B6;}
</style>
<g
   id="g4738"
   transform="matrix(0.51641018,0,0,0.51641018,151.14575,27.05521)"><path
     class="st0"
     d="m 600.95349,67.7 c 0.2,0.1 0.3,0.2 0.5,0.4 v 0 c -0.2,-0.1 -0.4,-0.3 -0.5,-0.4 z"
     id="path4"
     inkscape:connector-curvature="0"
     style="fill:#1de9b6" /><path
     class="st0"
     d="m 561.45349,82.8 c -1.1,0 -2.2,0.5 -2.9,1.2 0.7,-0.8 1.8,-1.2 2.9,-1.2 h 26.7 c 0.4,0 0.8,0.1 1.2,0.2 -0.4,-0.1 -0.8,-0.2 -1.2,-0.2 z"
     id="path6"
     inkscape:connector-curvature="0"
     style="fill:#1de9b6" /><path
     class="st0"
     d="m 588.15349,91 c 1.1,0 2.2,-0.5 2.9,-1.2 -0.7,0.8 -1.7,1.3 -2.9,1.2 h -26.7 c -0.2,0 -0.4,0 -0.6,0 0.2,0 0.4,0 0.6,0 z"
     id="path8"
     inkscape:connector-curvature="0"
     style="fill:#1de9b6" /><path
     class="st0"
     d="m 591.15349,84 c 0.1,0.1 0.3,0.3 0.4,0.5 -0.2,-0.2 -0.3,-0.4 -0.4,-0.5 z"
     id="path10"
     inkscape:connector-curvature="0"
     style="fill:#1de9b6" /><path
     class="st0"
     d="m 588.15349,19.5 c 0.4,0 0.8,0.1 1.2,0.2 -0.3,-0.1 -0.7,-0.2 -1.2,-0.2 h -26.7 c -1.1,0 -2.2,0.5 -2.9,1.2 0.7,-0.8 1.8,-1.2 2.9,-1.2 z"
     id="path12"
     inkscape:connector-curvature="0"
     style="fill:#1de9b6" /><path
     class="st0"
     d="m 591.85349,21.6 c -0.2,-0.3 -0.4,-0.7 -0.7,-1 v 0 c 0.3,0.4 0.5,0.7 0.7,1 z"
     id="path14"
     inkscape:connector-curvature="0"
     style="fill:#1de9b6" /><path
     class="st0"
     d="m 561.15349,19.5 c 0,0 0,0 0,0 0.1,0 0.2,0 0.3,0 -0.1,0 -0.2,0 -0.3,0 z m 5.6,-13.1 h -22.9 c -3.6,0 -6.5,2.9 -6.5,6.5 0,1.8 0.7,3.4 1.9,4.6 1.2,1.2 2.8,1.9 4.6,1.9 h 6.6 c 1.1,0 2.2,0.4 2.9,1.2 0.8,0.8 1.2,1.8 1.2,3 0,2.3 -1.9,4.1 -4.2,4.1 h -9.3 c -2,0 -3.7,1.6 -3.7,3.7 v 0.2 c 0,2 1.6,3.7 3.7,3.7 h 19.3 c 1.1,0 2.2,0.5 2.9,1.2 0.8,0.8 1.2,1.8 1.2,3 0,2.3 -1.9,4.1 -4.2,4.1 h -1.3 c -2,0 -3.7,1.6 -3.7,3.7 v 0.2 c 0,2 1.6,3.7 3.7,3.7 h 10.2 c 1.1,0 2.2,0.5 2.9,1.2 0.8,0.8 1.2,1.8 1.2,3 0,2.3 -2,4.1 -4.2,4.1 h -10.1 c -2,0 -3.7,1.6 -3.7,3.7 0,1 0.4,1.9 1.1,2.6 0.7,0.7 1.6,1.1 2.6,1.1 h 1.4 c 1.1,0 2.2,0.5 2.9,1.2 0.8,0.8 1.2,1.8 1.2,3 0,2.3 -1.9,4.1 -4.2,4.1 h -19.2 c -2,0 -3.7,1.6 -3.7,3.7 v 0.2 c 0,2 1.6,3.7 3.7,3.7 h 9.4 c 1.1,0 2.2,0.5 2.9,1.2 0.8,0.8 1.2,1.8 1.2,3 0,2.3 -1.9,4.1 -4.2,4.1 h -6.5 c -3.6,0 -6.5,2.9 -6.5,6.5 v 0.1 c 0,3.6 2.9,6.5 6.5,6.5 h 22.5 c 27,0 49.4,-22.1 49.3,-49.1 -0.1,-26.9 -22,-48.7 -48.9,-48.7 z m -5.3,21.4 c -1.1,0 -2.2,-0.5 -2.9,-1.2 v 0 c -0.3,-0.3 -0.5,-0.6 -0.7,-0.9 -0.3,-0.6 -0.5,-1.3 -0.5,-2 0,-1.1 0.5,-2.2 1.2,-2.9 0.2,-0.2 0.4,-0.3 0.6,-0.5 0.1,-0.1 0.3,-0.2 0.4,-0.2 0,0 0.1,0 0.1,-0.1 0.1,0 0.1,-0.1 0.2,-0.1 0,0 0.1,0 0.1,-0.1 0,0 0.1,0 0.1,0 0.1,0 0.1,0 0.2,-0.1 0.1,0 0.3,-0.1 0.5,-0.1 0.1,0 0.2,0 0.3,0 0.1,0 0.3,0 0.4,0 h 26.7 c 0.4,0 0.8,0.1 1.2,0.2 0.6,0.2 1.2,0.5 1.7,1 0.3,0.3 0.5,0.6 0.7,1 0.3,0.6 0.5,1.3 0.5,2 0,2.3 -1.9,4.1 -4.1,4.1 h -26.7 z m 10.3,15.8 c -0.1,0 -0.3,0 -0.4,0 v 0 c -0.1,0 -0.3,0 -0.4,-0.1 0,0 0,0 0,0 -0.3,0 -0.5,-0.1 -0.7,-0.2 -0.3,-0.1 -0.5,-0.2 -0.7,-0.4 -0.2,-0.1 -0.4,-0.3 -0.6,-0.5 -0.8,-0.7 -1.2,-1.8 -1.2,-2.9 0,-0.2 0,-0.3 0,-0.5 0,-0.3 0.1,-0.5 0.2,-0.8 0,-0.1 0.1,-0.2 0.1,-0.3 0,-0.1 0.1,-0.3 0.2,-0.4 0.1,-0.1 0.1,-0.2 0.2,-0.3 0.1,-0.1 0.1,-0.2 0.2,-0.3 0.1,-0.1 0.2,-0.2 0.3,-0.3 0.8,-0.8 1.8,-1.2 2.9,-1.2 h 26.6 c 1.1,0 2.2,0.5 2.9,1.2 0.2,0.2 0.4,0.4 0.5,0.6 0.2,0.2 0.3,0.5 0.4,0.7 0,0.1 0.1,0.3 0.1,0.4 0.1,0.4 0.2,0.8 0.2,1.2 0,0.4 -0.1,0.8 -0.2,1.2 0,0.1 -0.1,0.3 -0.1,0.4 0,0.1 -0.1,0.3 -0.2,0.4 0,0.1 -0.1,0.2 -0.2,0.3 0,0.1 -0.1,0.2 -0.2,0.3 -0.3,0.3 -0.6,0.6 -0.9,0.8 -0.2,0.2 -0.4,0.3 -0.6,0.4 -0.1,0.1 -0.3,0.1 -0.4,0.2 -0.1,0 -0.3,0.1 -0.5,0.1 -0.1,0 -0.2,0 -0.3,0 0,0 0,0 0,0 -0.1,0 -0.3,0 -0.4,0 z m 19.4,46.2 c -0.8,0.8 -1.8,1.2 -2.9,1.2 h -26.8 c -0.2,0 -0.4,0 -0.6,0 -0.2,0 -0.4,-0.1 -0.6,-0.1 -0.2,-0.1 -0.4,-0.1 -0.5,-0.2 -0.2,-0.1 -0.3,-0.2 -0.5,-0.3 -0.3,-0.2 -0.5,-0.3 -0.7,-0.6 v 0 c -0.1,-0.1 -0.2,-0.2 -0.3,-0.3 -0.1,-0.1 -0.2,-0.2 -0.2,-0.3 -0.1,-0.1 -0.2,-0.2 -0.2,-0.3 -0.2,-0.3 -0.3,-0.7 -0.4,-1 0,-0.1 -0.1,-0.3 -0.1,-0.4 0,-0.2 0,-0.3 0,-0.5 0,-1.1 0.5,-2.2 1.2,-2.9 0.8,-0.8 1.8,-1.2 2.9,-1.2 h 26.7 c 0.4,0 0.8,0.1 1.2,0.2 0.1,0 0.3,0.1 0.4,0.1 0.1,0 0.2,0.1 0.3,0.2 0,0 0,0 0,0 0.2,0.1 0.3,0.2 0.5,0.3 0.2,0.1 0.3,0.3 0.5,0.4 0.1,0.1 0.3,0.3 0.4,0.5 0.1,0.1 0.1,0.2 0.2,0.3 0,0.1 0.1,0.2 0.2,0.3 0.1,0.1 0.1,0.3 0.2,0.5 0.1,0.2 0.1,0.3 0.2,0.5 0,0.1 0.1,0.3 0.1,0.4 0,0 0,0 0,0 0,0 0,0 0,0 0,0.2 0,0.3 0,0.5 0,1 -0.5,2 -1.2,2.7 z m 11.1,-17.2 c 0,0.1 -0.1,0.3 -0.2,0.4 0,0.1 -0.1,0.2 -0.2,0.3 -0.1,0.1 -0.2,0.2 -0.3,0.3 -0.1,0.1 -0.2,0.2 -0.3,0.3 -0.8,0.8 -1.8,1.2 -2.9,1.2 h -26.7 c -1.1,0 -2.2,-0.5 -2.9,-1.2 -0.8,-0.8 -1.2,-1.8 -1.2,-2.9 0,-0.2 0,-0.3 0,-0.5 0,-0.3 0.1,-0.5 0.2,-0.8 0,-0.1 0.1,-0.2 0.1,-0.3 0,-0.1 0.1,-0.3 0.2,-0.4 0.1,-0.1 0.1,-0.2 0.2,-0.3 0.1,-0.1 0.1,-0.2 0.2,-0.3 0.1,-0.1 0.2,-0.2 0.3,-0.3 0.8,-0.8 1.8,-1.2 2.9,-1.2 h 26.8 c 0.2,0 0.3,0 0.5,0 0.2,0 0.3,0.1 0.5,0.1 0.2,0 0.3,0.1 0.5,0.2 0.2,0.1 0.3,0.1 0.5,0.2 0.1,0 0.2,0.1 0.3,0.2 0.1,0 0.2,0.1 0.3,0.2 0.2,0.1 0.3,0.3 0.5,0.4 0.1,0.1 0.2,0.2 0.3,0.4 0.1,0.1 0.2,0.2 0.2,0.3 0.1,0.2 0.2,0.3 0.3,0.5 0,0.1 0.1,0.1 0.1,0.2 0,0.1 0,0.2 0.1,0.2 0,0.1 0.1,0.3 0.1,0.4 0,0 0,0 0,0 0,0 0,0 0,0.1 0,0.1 0,0.2 0,0.3 0,0.1 0,0.1 0,0.2 0,0.1 0,0.1 0,0.2 0,0.6 -0.2,1.1 -0.4,1.6 z m -0.6,-13.1 h -21.6 c -0.3,0 -0.6,0 -0.8,-0.1 -0.3,0 -0.5,-0.1 -0.8,-0.2 -0.5,-0.2 -0.9,-0.5 -1.3,-0.9 v 0 c -0.8,-0.8 -1.2,-1.8 -1.2,-2.9 0,-2.3 1.9,-4.1 4.1,-4.1 h 21.6 c 1.2,0 2.2,0.5 2.9,1.2 0.8,0.8 1.2,1.8 1.2,2.9 0,2.3 -1.8,4.1 -4.1,4.1 z m -40.5,-40 c 0,0 0,0 0,0 0.1,0 0.2,0 0.3,0 -0.1,0 -0.2,0 -0.3,0 z"
     id="path16"
     inkscape:connector-curvature="0"
     style="fill:#1de9b6" /><path
     class="st0"
     d="m 548.05349,51.2 c 2,0 3.7,-1.6 3.7,-3.7 v -0.2 c 0,-2 -1.6,-3.7 -3.7,-3.7 h -2.3 c -2,0 -3.7,1.6 -3.7,3.7 v 0.2 c 0,2 1.6,3.7 3.7,3.7 z"
     id="path18"
     inkscape:connector-curvature="0"
     style="fill:#1de9b6" /><path
     class="st0"
     d="m 537.25349,63.1 c 0,2 1.6,3.7 3.7,3.7 h 5.4 c 2,0 3.7,-1.6 3.7,-3.7 0,-2 -1.6,-3.7 -3.7,-3.7 h -5.4 c -2,0.1 -3.7,1.7 -3.7,3.7 z"
     id="path20"
     inkscape:connector-curvature="0"
     style="fill:#1de9b6" /><polygon
     transform="translate(-111.54651,-106)"
     class="st0"
     points="166.9,186.7 167.4,186.7 197.3,142 197.3,210 214,210 214,115.2 196.2,115.2 167.4,160 138.5,115.2 120.8,115.2 120.8,210 137.2,210 137.2,142.3 "
     id="polygon22"
     style="fill:#1de9b6" /><path
     class="st0"
     d="m 175.85349,8.5 h -15.4 l -41.7,95.5 h 17.1 l 9.8,-22.9 h 44.8 l 9.6,22.9 h 17.6 z m -24.2,57.8 16.3,-37.9 16.4,37.9 z"
     id="path24"
     inkscape:connector-curvature="0"
     style="fill:#1de9b6" /><polygon
     transform="translate(-111.54651,-106)"
     class="st0"
     points="388.2,155.9 427.6,115.2 407.2,115.2 362.1,162.9 362.1,115.2 345.4,115.2 345.4,210 362.1,210 362.1,182.5 376.8,167.3 409.2,210 429.4,210 "
     id="polygon26"
     style="fill:#1de9b6" /><polygon
     transform="translate(-111.54651,-106)"
     class="st0"
     points="460.3,195.1 460.3,169.6 507.8,169.6 507.8,154.7 460.3,154.7 460.3,130.1 513.9,130.1 513.9,115.2 443.6,115.2 443.6,210 514.6,210 514.6,195.1 "
     id="polygon28"
     style="fill:#1de9b6" /><path
     class="st0"
     d="m 498.75349,48.7 26.4,-27.1 V 9.1 h -62.7 v 14.5 h 41 l -25.6,27.2 2.7,10.4 h 7.7 c 13.4,0 21.8,5.3 21.8,14.8 0,8.8 -7,14.5 -16.4,14.5 -10.6,0 -18.2,-4.5 -24.9,-12.5 l -11.6,11 c 8,9.8 19.8,16.7 36.3,16.7 19.6,0 33.2,-12.5 33.2,-30.1 0,-17.8 -13.4,-25 -27.9,-26.9 z"
     id="path30"
     inkscape:connector-curvature="0"
     style="fill:#1de9b6" /></g>
</svg>
