<?xml version="1.0" encoding="UTF-8" standalone="no"?>
<svg
   xmlns:dc="http://purl.org/dc/elements/1.1/"
   xmlns:cc="http://creativecommons.org/ns#"
   xmlns:rdf="http://www.w3.org/1999/02/22-rdf-syntax-ns#"
   xmlns:svg="http://www.w3.org/2000/svg"
   xmlns="http://www.w3.org/2000/svg"
   xmlns:sodipodi="http://sodipodi.sourceforge.net/DTD/sodipodi-0.dtd"
   xmlns:inkscape="http://www.inkscape.org/namespaces/inkscape"
   version="1.1"
   id="Layer_1"
   x="0px"
   y="0px"
   width="600px"
   height="542px"
   viewBox="0 0 600 542"
   enable-background="new 0 0 600 542"
   xml:space="preserve"
   sodipodi:docname="skoz.svg"
   inkscape:version="1.0.1 (3bc2e813f5, 2020-09-07)"><metadata
   id="metadata242"><rdf:RDF><cc:Work
       rdf:about=""><dc:format>image/svg+xml</dc:format><dc:type
         rdf:resource="http://purl.org/dc/dcmitype/StillImage" /></cc:Work></rdf:RDF></metadata><defs
   id="defs240" /><sodipodi:namedview
   pagecolor="#ffffff"
   bordercolor="#666666"
   borderopacity="1"
   objecttolerance="10"
   gridtolerance="10"
   guidetolerance="10"
   inkscape:pageopacity="0"
   inkscape:pageshadow="2"
   inkscape:window-width="2560"
   inkscape:window-height="1359"
   id="namedview238"
   showgrid="false"
   inkscape:zoom="1.4907749"
   inkscape:cx="300"
   inkscape:cy="271"
   inkscape:window-x="0"
   inkscape:window-y="0"
   inkscape:window-maximized="1"
   inkscape:current-layer="Layer_1"
   inkscape:document-rotation="0" />
<g
   id="g235"
   transform="matrix(0.79963585,0,0,0.79963585,60.109246,-7.701219)">
	<path
   fill="#99c23c"
   d="m 26.988,155.082 39.651,-2.483 c 0.854,6.438 2.606,11.348 5.244,14.719 4.29,5.46 10.426,8.187 18.401,8.187 5.943,0 10.527,-1.393 13.751,-4.188 3.217,-2.788 4.831,-6.021 4.831,-9.702 0,-3.498 -1.535,-6.626 -4.601,-9.386 -3.07,-2.761 -10.184,-5.362 -21.342,-7.817 -18.279,-4.108 -31.312,-9.571 -39.101,-16.379 -7.851,-6.806 -11.773,-15.483 -11.773,-26.032 0,-6.928 2.008,-13.477 6.022,-19.641 4.015,-6.165 10.056,-11.005 18.126,-14.534 8.064,-3.526 19.119,-5.292 33.166,-5.292 17.229,0 30.37,3.207 39.417,9.618 9.042,6.405 14.426,16.605 16.144,30.587 l -39.282,2.297 c -1.043,-6.071 -3.231,-10.484 -6.578,-13.244 -3.339,-2.761 -7.954,-4.143 -13.845,-4.143 -4.846,0 -8.496,1.029 -10.947,3.08 -2.455,2.057 -3.68,4.556 -3.68,7.498 0,2.15 1.014,4.084 3.036,5.802 1.963,1.775 6.628,3.433 13.983,4.963 18.212,3.926 31.26,7.896 39.142,11.916 7.882,4.017 13.618,8.999 17.205,14.946 3.587,5.948 5.384,12.605 5.384,19.961 0,8.648 -2.393,16.625 -7.178,23.921 -4.783,7.303 -11.469,12.837 -20.055,16.604 -8.586,3.773 -19.408,5.657 -32.473,5.657 -22.941,0 -38.823,-4.413 -47.654,-13.249 -8.829,-8.831 -13.828,-20.055 -14.994,-33.666"
   id="path153" />
	<polygon
   fill="#99c23c"
   points="448.197,92.31 448.197,62.535 570.158,62.535 570.158,90.412 491.872,172.033 573.012,172.033 573.012,201.999 440.688,201.999 440.688,173.075 518.153,92.31 "
   id="polygon155" />
	<polygon
   fill="#99c23c"
   points="206.382,62.535 206.382,115.237 251.528,62.535 308.844,62.535 257.95,115.177 311.121,201.999 258.054,201.999 228.651,144.644 206.382,167.969 206.382,201.999 163.289,201.999 163.289,62.535 "
   id="polygon157" />
	<path
   fill="#231f20"
   d="m 366.144,127.4 1.028,0.601 c 0.164,2.104 1.351,4.028 3.233,5.121 0.994,0.569 2.119,0.87 3.253,0.87 0.97,0 1.931,-0.221 2.796,-0.634 l 1.038,0.604 -21.727,24.521 10.379,-31.083 m -1.095,-2.868 -14.136,42.354 29.616,-33.421 -4.094,-2.361 c -0.797,0.615 -1.772,0.944 -2.777,0.944 -0.773,0 -1.557,-0.197 -2.277,-0.61 -1.653,-0.954 -2.479,-2.779 -2.244,-4.55 z"
   id="path159" />
	<path
   fill="#ec1c24"
   d="m 366.879,121.363 29.61,-33.416 -14.135,42.351 -4.142,-2.386 c 0.158,-1.732 -0.668,-3.469 -2.258,-4.389 -1.604,-0.925 -3.521,-0.773 -4.936,0.23 z"
   id="path161" />
	<path
   fill="#231f20"
   d="M 305.961,96.256 V 96.3 l 0.499,-0.089 0.049,-0.456 0.222,-1.188 c -0.271,0.548 -0.544,1.144 -0.77,1.689"
   id="path163" />
	<path
   fill="#231f20"
   d="m 306.509,95.755 -0.049,0.456 -0.499,0.089 v -0.044 c 0.096,-0.093 0.273,-0.276 0.548,-0.501"
   id="path165" />
	<path
   fill="#035a71"
   d="m 426.394,74.723 c -1.422,-1.456 -2.873,-2.828 -4.381,-4.058 l -6.204,-9.492 30.698,-16.876 -92.558,-14.277 -82.062,45.067 37.265,5.752 -2.417,13.681 v 0.046 l -0.226,1.189 -0.049,0.454 -0.499,0.093 h -0.043 c -4.43,9.624 -6.756,20.207 -6.756,31.158 0,19.887 7.711,38.637 21.847,52.731 14.054,14.051 32.711,21.806 52.649,21.806 19.982,0 38.683,-7.755 52.735,-21.806 14.136,-14.095 21.9,-32.845 21.9,-52.731 10e-4,-19.891 -7.764,-38.641 -21.899,-52.737 m -82.524,11.448 20.573,3.198 20.938,-11.497 c 22.485,5.244 39.229,25.454 39.229,49.543 0,28.143 -22.759,50.907 -50.915,50.907 -28.141,0 -50.904,-22.765 -50.904,-50.907 10e-4,-16.973 8.308,-31.98 21.079,-41.244 m 79.329,90.784 c -13.188,13.229 -30.793,20.48 -49.541,20.48 -18.613,0 -36.265,-7.251 -49.402,-20.48 -13.279,-13.229 -20.534,-30.795 -20.534,-49.495 0,-13.549 3.786,-26.504 10.999,-37.637 2.646,-1.732 5.923,-3.602 9.806,-5.521 -10.537,11.953 -16.24,27.098 -16.24,43.112 0,17.467 6.794,33.894 19.161,46.254 12.361,12.362 28.789,19.163 46.249,19.163 17.479,0 33.902,-6.801 46.259,-19.163 12.368,-12.36 19.161,-28.787 19.161,-46.254 0,-17.476 -6.793,-33.893 -19.161,-46.257 -3.693,-3.695 -7.754,-6.893 -12.088,-9.535 3.195,0.365 6.525,0.822 9.897,1.412 1.874,1.551 3.7,3.193 5.435,4.926 13.179,13.229 20.524,30.838 20.524,49.499 0,18.658 -7.346,36.267 -20.525,49.496"
   id="path167" />
	<polygon
   fill="#035a71"
   points="275.956,121.159 284.899,77.41 293.839,121.159 "
   id="polygon169" />
	<path
   fill="#99c23c"
   d="m 26.988,271.384 15.863,-0.995 c 0.339,2.575 1.042,4.541 2.095,5.891 1.718,2.182 4.173,3.276 7.36,3.276 2.376,0 4.211,-0.562 5.502,-1.682 1.287,-1.114 1.934,-2.401 1.934,-3.882 0,-1.393 -0.615,-2.645 -1.841,-3.745 -1.225,-1.107 -4.074,-2.15 -8.537,-3.131 -7.311,-1.647 -12.526,-3.826 -15.639,-6.554 -3.146,-2.719 -4.709,-6.192 -4.709,-10.408 0,-2.775 0.802,-5.394 2.404,-7.858 1.61,-2.465 4.026,-4.403 7.253,-5.816 3.229,-1.405 7.646,-2.113 13.264,-2.113 6.894,0 12.152,1.282 15.769,3.846 3.622,2.563 5.772,6.643 6.46,12.237 l -15.714,0.918 c -0.418,-2.429 -1.295,-4.195 -2.633,-5.302 -1.338,-1.103 -3.184,-1.653 -5.54,-1.653 -1.934,0 -3.395,0.414 -4.372,1.235 -0.985,0.821 -1.478,1.818 -1.478,2.995 0,0.86 0.403,1.629 1.216,2.316 0.788,0.713 2.652,1.374 5.595,1.989 7.286,1.568 12.507,3.158 15.653,4.766 3.154,1.604 5.446,3.604 6.886,5.979 1.436,2.381 2.154,5.043 2.154,7.986 0,3.456 -0.961,6.646 -2.873,9.567 -1.91,2.917 -4.586,5.131 -8.021,6.641 -3.433,1.509 -7.762,2.258 -12.987,2.258 -9.176,0 -15.533,-1.758 -19.064,-5.295 -3.535,-3.526 -5.531,-8.023 -6,-13.466"
   id="path171" />
	<path
   fill="#99c23c"
   d="m 101.66,290.146 v -55.779 h 28.727 c 5.329,0 9.403,0.459 12.219,1.369 2.813,0.915 5.085,2.606 6.809,5.081 1.727,2.47 2.587,5.486 2.587,9.037 0,3.095 -0.653,5.768 -1.973,8.009 -1.328,2.244 -3.14,4.065 -5.446,5.464 -1.475,0.884 -3.492,1.624 -6.056,2.203 2.057,0.685 3.55,1.379 4.487,2.061 0.635,0.454 1.555,1.432 2.753,2.934 1.206,1.499 2.014,2.647 2.417,3.459 l 8.348,16.163 H 137.054 L 127.841,273.1 c -1.168,-2.2 -2.205,-3.633 -3.12,-4.298 -1.24,-0.86 -2.653,-1.287 -4.222,-1.287 h -1.525 v 22.632 H 101.66 Z m 17.314,-33.176 h 7.272 c 0.783,0 2.309,-0.258 4.566,-0.764 1.141,-0.227 2.07,-0.812 2.793,-1.747 0.724,-0.939 1.082,-2.016 1.082,-3.236 0,-1.802 -0.564,-3.183 -1.711,-4.148 -1.142,-0.963 -3.281,-1.446 -6.426,-1.446 h -7.577 v 11.341 z"
   id="path173" />
	<polygon
   fill="#99c23c"
   points="228.462,234.366 228.462,246.276 199.535,246.276 199.535,255.144 226.364,255.144 226.364,266.521 199.535,266.521 199.535,277.52 229.298,277.52 229.298,290.146 182.263,290.146 182.263,234.366 "
   id="polygon175" />
	<path
   fill="#99c23c"
   d="m 255.024,234.366 h 25.613 c 5.047,0 9.126,0.683 12.23,2.056 3.108,1.367 5.677,3.335 7.704,5.897 2.035,2.56 3.506,5.54 4.413,8.939 0.918,3.402 1.374,7.008 1.374,10.811 0,5.958 -0.677,10.582 -2.037,13.869 -1.359,3.286 -3.243,6.04 -5.648,8.26 -2.411,2.214 -4.999,3.699 -7.764,4.429 -3.784,1.014 -7.207,1.528 -10.272,1.528 H 255.024 Z M 272.264,247 v 30.48 h 4.221 c 3.605,0 6.164,-0.403 7.689,-1.197 1.521,-0.802 2.717,-2.199 3.577,-4.184 0.859,-1.997 1.295,-5.223 1.295,-9.691 0,-5.907 -0.966,-9.958 -2.895,-12.137 -1.927,-2.182 -5.127,-3.271 -9.588,-3.271 z"
   id="path177" />
	<rect
   x="331.25299"
   y="234.366"
   fill="#99c23c"
   width="17.271999"
   height="55.778999"
   id="rect179" />
	<path
   fill="#99c23c"
   d="m 375.095,271.84 15.549,-0.976 c 0.33,2.522 1.022,4.445 2.056,5.771 1.682,2.143 4.089,3.215 7.217,3.215 2.33,0 4.127,-0.554 5.395,-1.644 1.26,-1.101 1.894,-2.364 1.894,-3.806 0,-1.369 -0.601,-2.6 -1.807,-3.681 -1.201,-1.086 -3.988,-2.104 -8.37,-3.067 -7.168,-1.609 -12.28,-3.75 -15.326,-6.421 -3.085,-2.672 -4.622,-6.071 -4.622,-10.21 0,-2.715 0.787,-5.283 2.363,-7.705 1.571,-2.414 3.94,-4.314 7.106,-5.695 3.167,-1.384 7.5,-2.078 13.007,-2.078 6.755,0 11.905,1.261 15.456,3.77 3.545,2.516 5.665,6.515 6.328,11.994 l -15.404,0.906 c -0.403,-2.381 -1.269,-4.113 -2.575,-5.196 -1.316,-1.081 -3.118,-1.624 -5.429,-1.624 -1.903,0 -3.335,0.403 -4.295,1.211 -0.962,0.802 -1.442,1.787 -1.442,2.938 0,0.841 0.394,1.598 1.191,2.273 0.77,0.698 2.595,1.347 5.481,1.948 7.146,1.539 12.263,3.099 15.352,4.675 3.09,1.573 5.339,3.526 6.746,5.859 1.403,2.337 2.109,4.943 2.109,7.832 0,3.391 -0.938,6.515 -2.811,9.378 -1.875,2.863 -4.498,5.035 -7.865,6.515 -3.369,1.476 -7.61,2.21 -12.737,2.21 -8.994,0 -15.222,-1.729 -18.686,-5.188 -3.464,-3.465 -5.424,-7.871 -5.881,-13.204 m 29.188,-38.604 H 393.89 l -8.009,-10.317 h 8.906 l 4.401,5.516 4.401,-5.516 h 8.989 z"
   id="path181" />
	<path
   fill="#99c23c"
   d="m 485.924,267.687 14.326,4.326 c -0.96,4.021 -2.479,7.38 -4.544,10.07 -2.071,2.696 -4.642,4.729 -7.707,6.093 -3.065,1.374 -6.968,2.056 -11.704,2.056 -5.746,0 -10.445,-0.826 -14.087,-2.498 -3.647,-1.672 -6.795,-4.607 -9.432,-8.816 -2.647,-4.204 -3.974,-9.593 -3.974,-16.151 0,-8.747 2.33,-15.473 6.986,-20.177 4.65,-4.693 11.232,-7.046 19.751,-7.046 6.664,0 11.896,1.348 15.707,4.046 3.814,2.69 6.649,6.827 8.499,12.407 l -14.428,3.208 c -0.509,-1.609 -1.038,-2.79 -1.591,-3.532 -0.918,-1.251 -2.032,-2.215 -3.358,-2.89 -1.316,-0.673 -2.796,-1.007 -4.435,-1.007 -3.704,0 -6.539,1.489 -8.509,4.466 -1.494,2.215 -2.24,5.685 -2.24,10.412 0,5.864 0.885,9.883 2.673,12.06 1.772,2.172 4.275,3.258 7.499,3.258 3.124,0 5.492,-0.874 7.088,-2.633 1.606,-1.76 2.763,-4.307 3.48,-7.652 m -5.229,-34.451 h -10.387 l -8.005,-10.317 h 8.907 l 4.396,5.516 4.406,-5.516 h 8.984 z"
   id="path183" />
	<polygon
   fill="#99c23c"
   points="572.177,234.366 572.177,246.276 543.263,246.276 543.263,255.144 570.081,255.144 570.081,266.521 543.263,266.521 543.263,277.52 573.012,277.52 573.012,290.146 525.979,290.146 525.979,234.366 "
   id="polygon185" />
	<polygon
   fill="#99c23c"
   points="44.228,308.364 44.228,329.448 62.283,308.364 85.211,308.364 64.852,329.423 86.127,364.156 64.897,364.156 53.133,341.209 44.228,350.54 44.228,364.156 26.988,364.156 26.988,308.364 "
   id="polygon187" />
	<path
   fill="#99c23c"
   d="M 147.687,354.94 H 128.12 l -2.722,9.216 h -17.597 l 20.962,-55.792 h 18.811 l 20.958,55.792 H 150.48 Z m -3.573,-12.059 -6.159,-20.054 -6.098,20.054 z"
   id="path189" />
	<path
   fill="#99c23c"
   d="m 190.205,364.156 v -55.792 h 28.727 c 5.329,0 9.403,0.461 12.216,1.375 2.815,0.912 5.088,2.604 6.811,5.078 1.728,2.475 2.587,5.487 2.587,9.037 0,3.095 -0.653,5.766 -1.972,8.01 -1.328,2.243 -3.14,4.064 -5.446,5.463 -1.478,0.885 -3.492,1.624 -6.057,2.2 2.052,0.687 3.546,1.385 4.485,2.066 0.637,0.452 1.558,1.432 2.756,2.931 1.206,1.499 2.014,2.647 2.417,3.46 l 8.348,16.172 h -19.479 l -9.215,-17.057 c -1.165,-2.201 -2.202,-3.632 -3.118,-4.296 -1.239,-0.864 -2.652,-1.286 -4.221,-1.286 h -1.525 v 22.639 z m 17.314,-33.186 h 7.271 c 0.781,0 2.307,-0.254 4.56,-0.764 1.148,-0.226 2.078,-0.812 2.802,-1.749 0.723,-0.936 1.08,-2.012 1.08,-3.232 0,-1.802 -0.564,-3.187 -1.71,-4.146 -1.144,-0.966 -3.284,-1.451 -6.431,-1.451 h -7.572 z"
   id="path191" />
	<rect
   x="264.103"
   y="308.36401"
   fill="#99c23c"
   width="17.271999"
   height="55.792"
   id="rect193" />
	<polygon
   fill="#99c23c"
   points="351.903,308.364 351.903,320.279 322.979,320.279 322.979,329.146 349.803,329.146 349.803,340.522 322.979,340.522 322.979,351.52 352.738,351.52 352.738,364.156 305.702,364.156 305.702,308.364 "
   id="polygon195" />
	<path
   fill="#99c23c"
   d="m 374.408,364.156 v -55.792 h 28.731 c 5.323,0 9.397,0.461 12.214,1.375 2.815,0.912 5.088,2.604 6.812,5.078 1.726,2.475 2.586,5.487 2.586,9.037 0,3.095 -0.659,5.766 -1.979,8.01 -1.321,2.243 -3.133,4.064 -5.439,5.463 -1.475,0.885 -3.492,1.624 -6.054,2.2 2.047,0.687 3.546,1.385 4.487,2.066 0.625,0.452 1.547,1.432 2.749,2.931 1.211,1.499 2.018,2.647 2.421,3.46 l 8.346,16.172 h -19.479 l -9.21,-17.057 c -1.172,-2.201 -2.21,-3.632 -3.122,-4.296 -1.245,-0.864 -2.653,-1.286 -4.229,-1.286 h -1.518 v 22.639 z m 17.316,-33.186 h 7.265 c 0.788,0 2.306,-0.254 4.569,-0.764 1.139,-0.226 2.075,-0.812 2.801,-1.749 0.721,-0.936 1.076,-2.012 1.076,-3.232 0,-1.802 -0.567,-3.187 -1.711,-4.146 -1.138,-0.966 -3.286,-1.451 -6.428,-1.451 h -7.572 z"
   id="path197" />
	<polygon
   fill="#99c23c"
   points="450.956,364.156 450.956,308.364 467.051,308.364 488.057,339.229 488.057,308.364 504.306,308.364 504.306,364.156 488.057,364.156 467.166,333.521 467.166,364.156 "
   id="polygon199" />
	<polygon
   fill="#99c23c"
   points="572.177,308.364 572.177,320.279 543.263,320.279 543.263,329.146 570.081,329.146 570.081,340.522 543.263,340.522 543.263,351.52 573.012,351.52 573.012,364.156 525.979,364.156 525.979,308.364 "
   id="polygon201" />
	<polygon
   fill="#99c23c"
   points="29.898,468.638 29.898,457.116 77.069,457.116 77.069,467.897 46.794,499.47 78.178,499.47 78.178,511.062 26.991,511.062 26.991,499.878 56.958,468.638 "
   id="polygon203" />
	<path
   fill="#99c23c"
   d="M 186.489,502.16 H 167.56 l -2.633,8.902 h -17.019 l 20.276,-53.946 h 18.185 l 20.27,53.946 h -17.456 z m -3.46,-11.666 -5.953,-19.387 -5.895,19.387 z"
   id="path205" />
	<polygon
   fill="#99c23c"
   points="293.048,457.116 293.048,475.998 311.261,475.998 311.261,457.116 328.005,457.116 328.005,511.062 311.261,511.062 311.261,489.24 293.048,489.24 293.048,511.062 276.378,511.062 276.378,457.116 "
   id="polygon207" />
	<path
   fill="#99c23c"
   d="m 397.739,484.129 c 0,-8.808 2.45,-15.664 7.361,-20.574 4.91,-4.901 11.741,-7.356 20.496,-7.356 8.984,0 15.894,2.407 20.756,7.23 4.853,4.815 7.284,11.57 7.284,20.257 0,6.305 -1.062,11.479 -3.182,15.51 -2.124,4.035 -5.188,7.179 -9.2,9.417 -4.012,2.249 -9.009,3.368 -14.995,3.368 -6.088,0 -11.118,-0.966 -15.106,-2.902 -3.987,-1.937 -7.216,-5.001 -9.695,-9.2 -2.479,-4.201 -3.719,-9.447 -3.719,-15.75 m 16.673,0.075 c 0,5.444 1.013,9.355 3.035,11.733 2.019,2.383 4.776,3.57 8.259,3.57 3.58,0 6.353,-1.157 8.318,-3.493 1.96,-2.335 2.939,-6.515 2.939,-12.55 0,-5.079 -1.022,-8.788 -3.07,-11.128 -2.047,-2.345 -4.828,-3.517 -8.336,-3.517 -3.357,0 -6.054,1.187 -8.091,3.57 -2.036,2.38 -3.054,6.32 -3.054,11.815"
   id="path209" />
	<path
   fill="#99c23c"
   d="m 523.371,457.116 h 24.772 c 4.882,0 8.821,0.663 11.823,1.989 3.009,1.326 5.492,3.229 7.452,5.703 1.961,2.479 3.383,5.362 4.268,8.647 0.884,3.287 1.325,6.771 1.325,10.451 0,5.765 -0.653,10.233 -1.969,13.414 -1.308,3.176 -3.134,5.838 -5.468,7.986 -2.326,2.146 -4.829,3.574 -7.501,4.285 -3.656,0.979 -6.966,1.47 -9.931,1.47 H 523.37 v -53.945 z m 16.672,12.218 v 29.478 h 4.084 c 3.483,0 5.963,-0.385 7.433,-1.163 1.476,-0.769 2.629,-2.123 3.46,-4.046 0.831,-1.921 1.248,-5.045 1.248,-9.369 0,-5.707 -0.926,-9.628 -2.791,-11.732 -1.864,-2.114 -4.958,-3.167 -9.272,-3.167 h -4.162 z"
   id="path211" />
	<path
   fill="#035a71"
   d="m 26.988,410.214 c 0,-8.812 2.456,-15.668 7.361,-20.573 4.905,-4.906 11.74,-7.352 20.496,-7.352 8.98,0 15.896,2.402 20.754,7.227 4.855,4.818 7.286,11.569 7.286,20.256 0,6.304 -1.064,11.474 -3.183,15.509 -2.121,4.036 -5.191,7.174 -9.201,9.418 -4.009,2.248 -9.009,3.373 -14.99,3.373 -6.088,0 -11.125,-0.971 -15.11,-2.912 -3.985,-1.937 -7.217,-5.002 -9.691,-9.196 -2.48,-4.199 -3.722,-9.447 -3.722,-15.75 m 16.67,0.071 c 0,5.444 1.014,9.355 3.037,11.738 2.021,2.383 4.775,3.565 8.259,3.565 3.582,0 6.356,-1.159 8.319,-3.489 1.965,-2.335 2.942,-6.515 2.942,-12.549 0,-5.084 -1.022,-8.793 -3.074,-11.133 -2.047,-2.34 -4.826,-3.512 -8.329,-3.512 -3.366,0 -6.062,1.191 -8.098,3.564 -2.037,2.385 -3.056,6.32 -3.056,11.816"
   id="path213" />
	<path
   fill="#035a71"
   d="m 89.168,437.147 v -53.94 h 27.783 c 5.15,0 9.086,0.437 11.812,1.321 2.723,0.884 4.92,2.517 6.583,4.91 1.674,2.393 2.505,5.304 2.505,8.744 0,2.988 -0.641,5.568 -1.914,7.745 -1.28,2.167 -3.032,3.93 -5.264,5.275 -1.427,0.864 -3.375,1.571 -5.856,2.139 1.989,0.658 3.436,1.325 4.341,1.984 0.61,0.441 1.499,1.388 2.666,2.844 1.16,1.441 1.944,2.561 2.338,3.344 l 8.067,15.634 h -18.832 l -8.91,-16.488 c -1.132,-2.133 -2.136,-3.518 -3.022,-4.156 -1.201,-0.831 -2.563,-1.25 -4.084,-1.25 h -1.47 v 21.895 H 89.168 Z m 16.742,-32.085 h 7.031 c 0.757,0 2.227,-0.249 4.413,-0.734 1.1,-0.227 2.006,-0.789 2.705,-1.696 0.699,-0.908 1.048,-1.951 1.048,-3.128 0,-1.739 -0.551,-3.08 -1.658,-4.012 -1.103,-0.933 -3.173,-1.398 -6.22,-1.398 h -7.319 z"
   id="path215" />
	<rect
   x="147.672"
   y="383.20099"
   fill="#035a71"
   width="16.708"
   height="53.945999"
   id="rect217" />
	<polygon
   fill="#035a71"
   points="219.239,383.201 219.239,394.723 191.274,394.723 191.274,403.295 217.212,403.295 217.212,414.297 191.274,414.297 191.274,424.93 220.051,424.93 220.051,437.147 174.566,437.147 174.566,383.201 "
   id="polygon219" />
	<polygon
   fill="#035a71"
   points="228.421,437.147 228.421,383.201 243.987,383.201 264.297,413.049 264.297,383.201 280.011,383.201 280.011,437.147 264.297,437.147 244.102,407.527 244.102,437.147 "
   id="polygon221" />
	<polygon
   fill="#035a71"
   points="336.96,383.201 336.96,396.521 319.967,396.521 319.967,437.147 303.299,437.147 303.299,396.521 286.293,396.521 286.293,383.201 "
   id="polygon223" />
	<path
   fill="#035a71"
   d="m 372.476,428.245 h -18.925 l -2.633,8.902 h -17.019 l 20.275,-53.946 h 18.186 l 20.267,53.946 h -17.451 z m -3.458,-11.665 -5.949,-19.396 -5.9,19.396 z"
   id="path225" />
	<path
   fill="#035a71"
   d="m 432.736,415.07 14.605,4.416 c -0.979,4.093 -2.526,7.52 -4.637,10.263 -2.109,2.748 -4.732,4.823 -7.855,6.222 -3.132,1.398 -7.11,2.095 -11.943,2.095 -5.861,0 -10.657,-0.851 -14.366,-2.55 -3.719,-1.701 -6.929,-4.7 -9.629,-8.991 -2.69,-4.289 -4.04,-9.786 -4.04,-16.475 0,-8.926 2.368,-15.788 7.115,-20.578 4.746,-4.79 11.464,-7.187 20.15,-7.187 6.794,0 12.133,1.369 16.024,4.116 3.887,2.748 6.773,6.968 8.662,12.661 l -14.712,3.276 c -0.519,-1.644 -1.057,-2.85 -1.624,-3.608 -0.932,-1.273 -2.075,-2.258 -3.421,-2.94 -1.351,-0.691 -2.858,-1.032 -4.525,-1.032 -3.777,0 -6.675,1.518 -8.688,4.554 -1.519,2.258 -2.282,5.799 -2.282,10.628 0,5.978 0.908,10.07 2.725,12.29 1.815,2.216 4.367,3.325 7.659,3.325 3.189,0 5.592,-0.898 7.227,-2.686 1.629,-1.792 2.815,-4.391 3.555,-7.799"
   id="path227" />
	<rect
   x="456.26999"
   y="383.20099"
   fill="#035a71"
   width="16.709999"
   height="53.945999"
   id="rect229" />
	<path
   fill="#035a71"
   d="m 505.237,382.74 h 16.712 v 29.308 c 0,6.16 -0.548,10.835 -1.639,14.055 -1.091,3.205 -3.287,5.929 -6.587,8.163 -3.296,2.229 -7.524,3.345 -12.681,3.345 -5.443,0 -9.661,-0.741 -12.65,-2.211 -2.998,-1.471 -5.304,-3.623 -6.938,-6.457 -1.634,-2.835 -2.595,-6.333 -2.893,-10.503 l 15.933,-2.177 c 0.023,2.378 0.235,4.146 0.625,5.305 0.394,1.147 1.057,2.08 1.988,2.791 0.64,0.471 1.547,0.702 2.725,0.702 1.863,0 3.233,-0.692 4.103,-2.077 0.87,-1.389 1.302,-3.719 1.302,-7.005 z"
   id="path231" />
	<polygon
   fill="#035a71"
   points="572.205,383.201 572.205,394.723 544.242,394.723 544.242,403.295 570.177,403.295 570.177,414.297 544.242,414.297 544.242,424.93 573.012,424.93 573.012,437.147 527.531,437.147 527.531,383.201 "
   id="polygon233" />
</g>
</svg>
