<?xml version="1.0" encoding="UTF-8" standalone="no"?>
<svg
   xmlns:dc="http://purl.org/dc/elements/1.1/"
   xmlns:cc="http://creativecommons.org/ns#"
   xmlns:rdf="http://www.w3.org/1999/02/22-rdf-syntax-ns#"
   xmlns:svg="http://www.w3.org/2000/svg"
   xmlns="http://www.w3.org/2000/svg"
   xmlns:sodipodi="http://sodipodi.sourceforge.net/DTD/sodipodi-0.dtd"
   xmlns:inkscape="http://www.inkscape.org/namespaces/inkscape"
   id="Layer_1"
   data-name="Layer 1"
   viewBox="0 0 539.38 139.79"
   version="1.1"
   sodipodi:docname="spectre_logo.svg"
   inkscape:version="1.0.1 (3bc2e813f5, 2020-09-07)">
  <metadata
     id="metadata104">
    <rdf:RDF>
      <cc:Work
         rdf:about="">
        <dc:format>image/svg+xml</dc:format>
        <dc:type
           rdf:resource="http://purl.org/dc/dcmitype/StillImage" />
      </cc:Work>
    </rdf:RDF>
  </metadata>
  <sodipodi:namedview
     pagecolor="#ffffff"
     bordercolor="#666666"
     borderopacity="1"
     objecttolerance="10"
     gridtolerance="10"
     guidetolerance="10"
     inkscape:pageopacity="0"
     inkscape:pageshadow="2"
     inkscape:window-width="1920"
     inkscape:window-height="999"
     id="namedview102"
     showgrid="false"
     inkscape:zoom="1.4837943"
     inkscape:cx="295.11174"
     inkscape:cy="-4.9453772"
     inkscape:window-x="0"
     inkscape:window-y="0"
     inkscape:window-maximized="1"
     inkscape:current-layer="Layer_1"
     inkscape:document-rotation="0" />
  <defs
     id="defs77">
    <style
       id="style75">.cls-1{fill:#1d1d1b;}.cls-2{fill:#009bb4;}</style>
  </defs>
  <title
     id="title79">SPECTRE_logo_COLOR_RGB</title>
  <path
     class="cls-1"
     d="m 82.775682,60.74322 h 13.07307 a 5.2704494,5.2704494 0 0 1 5.263088,5.27045 v 13.073068 a 5.2704494,5.2704494 0 0 1 -5.263088,5.285177 H 71.815208 a 0.62568185,0.62568185 0 0 0 -0.625682,0.625675 v 5.06434 a 0.62568185,0.62568185 0 0 0 0.625682,0.62569 H 95.848752 A 11.593517,11.593517 0 0 0 107.43491,79.108824 V 66.01367 A 11.608239,11.608239 0 0 0 95.848752,54.420153 h -13.07307 a 5.2704494,5.2704494 0 0 1 -5.27045,-5.263088 V 36.091356 a 5.2778104,5.2778104 0 0 1 5.27045,-5.27045 h 22.760098 a 0.63304281,0.63304281 0 0 0 0.63304,-0.633043 v -5.056981 a 0.62568185,0.62568185 0 0 0 -0.63304,-0.633043 H 82.775682 A 11.608239,11.608239 0 0 0 71.182165,36.091356 V 49.157065 A 11.608239,11.608239 0 0 0 82.775682,60.74322 Z"
     id="path81"
     style="fill:#ffffff;stroke-width:0.736096" />
  <path
     class="cls-1"
     d="M 162.20783,49.157065 V 36.091356 A 11.608239,11.608239 0 0 0 150.62167,24.497839 h -24.02618 a 0.62568185,0.62568185 0 0 0 -0.63304,0.633043 v 5.056981 a 0.63304281,0.63304281 0 0 0 0.63304,0.633043 h 24.02618 a 5.2704494,5.2704494 0 0 1 5.26309,5.27045 v 13.065709 a 5.2630885,5.2630885 0 0 1 -5.26309,5.263088 h -24.03354 a 0.64040377,0.64040377 0 0 0 -0.63304,0.633043 V 90.03986 a 0.63304281,0.63304281 0 0 0 0.63304,0.62568 h 5.0349 a 0.62568185,0.62568185 0 0 0 0.62568,-0.62568 V 60.74322 h 18.34352 a 11.600878,11.600878 0 0 0 11.6156,-11.586155 z"
     id="path83"
     style="fill:#ffffff;stroke-width:0.736096" />
  <path
     class="cls-1"
     d="m 366.16539,24.497839 h -21.07443 a 0.63304281,0.63304281 0 0 0 -0.63304,0.633043 V 90.06193 a 0.64040377,0.64040377 0 0 0 0.63304,0.63305 h 5.05697 a 0.64040377,0.64040377 0 0 0 0.63305,-0.63305 V 30.820906 h 15.40649 a 0.63304281,0.63304281 0 0 0 0.62569,-0.633043 v -5.056981 a 0.62568185,0.62568185 0 0 0 -0.64777,-0.633043 z"
     id="path85"
     style="fill:#ffffff;stroke-width:0.736096" />
  <rect
     class="cls-1"
     x="324.28149"
     y="24.497837"
     width="14.957476"
     height="6.3230672"
     rx="0.63304281"
     id="rect87"
     style="fill:#ffffff;stroke-width:0.736096" />
  <path
     class="cls-1"
     d="m 405.82626,24.497839 h -27.81708 a 0.63304281,0.63304281 0 0 0 -0.63304,0.633043 v 5.056981 a 0.64040377,0.64040377 0 0 0 0.63304,0.633043 h 27.81708 a 5.2704494,5.2704494 0 0 1 5.26308,5.27045 v 13.065709 a 5.2630885,5.2630885 0 0 1 -5.26308,5.263088 h -27.61097 a 0.62568185,0.62568185 0 0 0 -0.58152,0.390131 0.63304281,0.63304281 0 0 0 0.1325,0.691931 l 34.2432,34.243199 c 0.58887,0.485826 0.51527,0.920126 1.64885,0.920126 h 7.08861 c 0.44166,0 0.61096,-0.25028 0.61096,-0.736101 a 0.64040377,0.64040377 0 0 0 -0.17666,-0.449015 L 391.95084,60.772664 H 405.8189 A 11.600878,11.600878 0 0 0 417.40505,49.186509 V 36.091356 A 11.600878,11.600878 0 0 0 405.82626,24.497839 Z"
     id="path89"
     style="fill:#ffffff;stroke-width:0.736096" />
  <rect
     class="cls-1"
     x="445.33255"
     y="54.427521"
     width="22.877872"
     height="6.3230672"
     rx="0.63304281"
     id="rect91"
     style="fill:#ffffff;stroke-width:0.736096" />
  <path
     class="cls-1"
     d="m 443.53647,90.68026 h 24.02619 a 0.62568185,0.62568185 0 0 0 0.62567,-0.63305 v -5.056976 a 0.63304281,0.63304281 0 0 0 -0.62567,-0.63304 h -24.02619 a 5.2704494,5.2704494 0 0 1 -5.27044,-5.263091 V 36.098717 a 5.2704494,5.2704494 0 0 1 5.27044,-5.263089 h 24.02619 a 0.64040377,0.64040377 0 0 0 0.63304,-0.633043 v -5.152674 a 0.57415511,0.57415511 0 0 0 -0.57415,-0.574155 h -24.08508 a 11.578794,11.578794 0 0 0 -11.58615,11.622961 v 42.995386 a 11.586155,11.586155 0 0 0 11.58615,11.586157 z"
     id="path93"
     style="fill:#ffffff;stroke-width:0.736096" />
  <rect
     class="cls-1"
     x="188.14786"
     y="54.427521"
     width="22.877872"
     height="6.3230672"
     rx="0.63304281"
     id="rect95"
     style="fill:#ffffff;stroke-width:0.736096" />
  <path
     class="cls-1"
     d="m 186.34443,90.68026 h 24.0409 a 0.62568185,0.62568185 0 0 0 0.62569,-0.63305 v -5.056976 a 0.63304281,0.63304281 0 0 0 -0.62569,-0.618319 h -24.0409 a 5.2704494,5.2704494 0 0 1 -5.27045,-5.263091 V 36.098717 a 5.2704494,5.2704494 0 0 1 5.27045,-5.263089 h 24.0409 a 0.64040377,0.64040377 0 0 0 0.63304,-0.633043 v -5.152674 a 0.57415511,0.57415511 0 0 0 -0.57415,-0.574155 h -24.09979 a 11.578794,11.578794 0 0 0 -11.58616,11.586156 v 42.995382 a 11.586155,11.586155 0 0 0 11.58616,11.622966 z"
     id="path97"
     style="fill:#ffffff;stroke-width:0.736096" />
  <path
     class="cls-2"
     d="m 233.61653,42.414422 v 37.025644 a 6.7941688,6.7941688 0 0 0 3.40077,5.888774 l 32.05699,18.50546 a 6.8015297,6.8015297 0 0 0 6.80153,0 l 31.25465,-18.041723 a 4.8582356,4.8582356 0 0 0 1.77399,-6.624866 l -6.50709,-11.225469 a 4.8508746,4.8508746 0 0 0 -6.62487,-1.781353 l -21.70011,12.513634 a 3.2241017,3.2241017 0 0 1 -3.23883,0 l -12.95529,-7.478736 a 3.2388236,3.2388236 0 0 1 -1.61942,-2.804526 V 41.207224 a 0.48582356,0.48582356 0 0 0 -0.73609,-0.426935 l -2.26718,1.310251 a 0.50054548,0.50054548 0 0 0 -0.24291,0.419575 v 26.83071 a 4.8655965,4.8655965 0 0 0 2.42912,4.210471 l 14.5747,8.413581 a 4.8582356,4.8582356 0 0 0 4.85824,0 l 21.11124,-12.189755 a 3.2461846,3.2461846 0 0 1 4.41658,1.185115 l 1.61941,2.804527 a 3.2461846,3.2461846 0 0 1 -1.18511,4.416577 L 274.05767,93.63936 a 3.2241017,3.2241017 0 0 1 -3.23883,0 L 244.98186,78.689245 a 3.2241017,3.2241017 0 0 1 -1.61941,-2.804524 V 45.969768 a 3.2314627,3.2314627 0 0 1 1.61941,-2.819249 l 25.90322,-14.957477 a 3.2609066,3.2609066 0 0 1 3.23883,0 l 21.70748,12.513637 a 4.8582356,4.8582356 0 0 0 6.62487,-1.781353 l 6.47028,-11.262273 a 4.8582356,4.8582356 0 0 0 -1.78871,-6.624867 L 274.90417,2.503282 a 4.8582356,4.8582356 0 0 0 -4.85823,0 l -14.57471,8.41358 a 4.8655965,4.8655965 0 0 0 -2.42912,4.210471 v 7.56707 a 0.48582356,0.48582356 0 0 0 0.7361,0.419574 l 2.24509,-1.310251 a 0.48582356,0.48582356 0 0 0 0.24292,-0.426936 v -5.329337 a 3.2461846,3.2461846 0 0 1 1.6194,-2.804526 l 12.9553,-7.478739 a 3.2609066,3.2609066 0 0 1 3.23882,0 l 30.01065,17.283541 a 3.2388236,3.2388236 0 0 1 1.19248,4.416578 l -1.61942,2.804527 a 3.2388236,3.2388236 0 0 1 -4.41657,1.192475 L 275.89791,18.01283 a 6.8088907,6.8088907 0 0 0 -6.79417,0 L 237.0173,36.525652 a 6.7941688,6.7941688 0 0 0 -3.40077,5.88877 z"
     id="path99"
     style="stroke-width:0.736096" />
</svg>
