<?xml version="1.0" encoding="UTF-8" standalone="no"?>
<svg
   xmlns:dc="http://purl.org/dc/elements/1.1/"
   xmlns:cc="http://creativecommons.org/ns#"
   xmlns:rdf="http://www.w3.org/1999/02/22-rdf-syntax-ns#"
   xmlns:svg="http://www.w3.org/2000/svg"
   xmlns="http://www.w3.org/2000/svg"
   xmlns:sodipodi="http://sodipodi.sourceforge.net/DTD/sodipodi-0.dtd"
   xmlns:inkscape="http://www.inkscape.org/namespaces/inkscape"
   id="Layer_1"
   data-name="Layer 1"
   viewBox="0 0 539.38 139.79"
   version="1.1"
   sodipodi:docname="spectre_logo.svg"
   inkscape:version="1.0.1 (3bc2e813f5, 2020-09-07)">
  <metadata
     id="metadata104">
    <rdf:RDF>
      <cc:Work
         rdf:about="">
        <dc:format>image/svg+xml</dc:format>
        <dc:type
           rdf:resource="http://purl.org/dc/dcmitype/StillImage" />
      </cc:Work>
    </rdf:RDF>
  </metadata>
  <sodipodi:namedview
     pagecolor="#ffffff"
     bordercolor="#666666"
     borderopacity="1"
     objecttolerance="10"
     gridtolerance="10"
     guidetolerance="10"
     inkscape:pageopacity="0"
     inkscape:pageshadow="2"
     inkscape:window-width="1920"
     inkscape:window-height="999"
     id="namedview102"
     showgrid="false"
     inkscape:zoom="2.3489933"
     inkscape:cx="269.69"
     inkscape:cy="69.895"
     inkscape:window-x="0"
     inkscape:window-y="0"
     inkscape:window-maximized="1"
     inkscape:current-layer="Layer_1" />
  <defs
     id="defs77">
    <style
       id="style75">.cls-1{fill:#1d1d1b;}.cls-2{fill:#009bb4;}</style>
  </defs>
  <title
     id="title79">SPECTRE_logo_COLOR_RGB</title>
  <path
     class="cls-1"
     d="M105.64,169.9H123.4a7.16,7.16,0,0,1,7.15,7.16v17.76A7.16,7.16,0,0,1,123.4,202H90.75a.85.85,0,0,0-.85.85v6.88a.85.85,0,0,0,.85.85H123.4a15.75,15.75,0,0,0,15.74-15.73V177.06a15.77,15.77,0,0,0-15.74-15.75H105.64a7.16,7.16,0,0,1-7.16-7.15V136.41a7.17,7.17,0,0,1,7.16-7.16h30.92a.86.86,0,0,0,.86-.86v-6.87a.85.85,0,0,0-.86-.86H105.64a15.77,15.77,0,0,0-15.75,15.75v17.75A15.77,15.77,0,0,0,105.64,169.9Z"
     transform="translate(-89.89 -89.89)"
     id="path81"
     style="fill:#ffffff" />
  <path
     class="cls-1"
     d="M213.55,154.16V136.41a15.77,15.77,0,0,0-15.74-15.75H165.17a.85.85,0,0,0-.86.86v6.87a.86.86,0,0,0,.86.86h32.64a7.16,7.16,0,0,1,7.15,7.16v17.75a7.15,7.15,0,0,1-7.15,7.15H165.16a.87.87,0,0,0-.86.86V209.7a.86.86,0,0,0,.86.85H172a.85.85,0,0,0,.85-.85V169.9h24.92A15.76,15.76,0,0,0,213.55,154.16Z"
     transform="translate(-89.89 -89.89)"
     id="path83"
     style="fill:#ffffff" />
  <path
     class="cls-1"
     d="M490.63,120.66H462a.86.86,0,0,0-.86.86v88.21a.87.87,0,0,0,.86.86h6.87a.87.87,0,0,0,.86-.86V129.25h20.93a.86.86,0,0,0,.85-.86v-6.87A.85.85,0,0,0,490.63,120.66Z"
     transform="translate(-89.89 -89.89)"
     id="path85"
     style="fill:#ffffff" />
  <rect
     class="cls-1"
     x="343.84"
     y="30.77"
     width="20.32"
     height="8.59"
     rx="0.86"
     id="rect87"
     style="fill:#ffffff" />
  <path
     class="cls-1"
     d="M544.51,120.66H506.72a.86.86,0,0,0-.86.86v6.87a.87.87,0,0,0,.86.86h37.79a7.16,7.16,0,0,1,7.15,7.16v17.75a7.15,7.15,0,0,1-7.15,7.15H507a.85.85,0,0,0-.79.53.86.86,0,0,0,.18.94l46.52,46.52c.8.66.7,1.25,2.24,1.25h9.63c.6,0,.83-.34.83-1a.87.87,0,0,0-.24-.61l-39.71-39h18.84a15.76,15.76,0,0,0,15.74-15.74V136.41A15.76,15.76,0,0,0,544.51,120.66Z"
     transform="translate(-89.89 -89.89)"
     id="path89"
     style="fill:#ffffff" />
  <rect
     class="cls-1"
     x="508.29"
     y="71.43"
     width="31.08"
     height="8.59"
     rx="0.86"
     id="rect91"
     style="fill:#ffffff" />
  <path
     class="cls-1"
     d="M595.74,210.57h32.64a.85.85,0,0,0,.85-.86v-6.87a.86.86,0,0,0-.85-.86H595.74a7.16,7.16,0,0,1-7.16-7.15V136.42a7.16,7.16,0,0,1,7.16-7.15h32.64a.87.87,0,0,0,.86-.86v-7a.78.78,0,0,0-.78-.78H595.74A15.73,15.73,0,0,0,580,136.42v58.41A15.74,15.74,0,0,0,595.74,210.57Z"
     transform="translate(-89.89 -89.89)"
     id="path93"
     style="fill:#ffffff" />
  <rect
     class="cls-1"
     x="158.9"
     y="71.43"
     width="31.08"
     height="8.59"
     rx="0.86"
     id="rect95"
     style="fill:#ffffff" />
  <path
     class="cls-1"
     d="M246.34,210.57H279a.85.85,0,0,0,.85-.86v-6.87A.86.86,0,0,0,279,202H246.34a7.16,7.16,0,0,1-7.16-7.15V136.42a7.16,7.16,0,0,1,7.16-7.15H279a.87.87,0,0,0,.86-.86v-7a.78.78,0,0,0-.78-.78H246.34a15.73,15.73,0,0,0-15.74,15.74v58.41A15.74,15.74,0,0,0,246.34,210.57Z"
     transform="translate(-89.89 -89.89)"
     id="path97"
     style="fill:#ffffff" />
  <path
     class="cls-2"
     d="M310.56,145V195.3a9.23,9.23,0,0,0,4.62,8l43.55,25.14a9.24,9.24,0,0,0,9.24,0l42.46-24.51a6.6,6.6,0,0,0,2.41-9L404,179.68a6.59,6.59,0,0,0-9-2.42l-29.48,17a4.38,4.38,0,0,1-4.4,0l-17.6-10.16a4.4,4.4,0,0,1-2.2-3.81V143.36a.66.66,0,0,0-1-.58l-3.08,1.78a.68.68,0,0,0-.33.57v36.45a6.61,6.61,0,0,0,3.3,5.72l19.8,11.43a6.6,6.6,0,0,0,6.6,0l28.68-16.56a4.41,4.41,0,0,1,6,1.61l2.2,3.81a4.41,4.41,0,0,1-1.61,6l-36.38,21a4.38,4.38,0,0,1-4.4,0L326,194.28a4.38,4.38,0,0,1-2.2-3.81V149.83A4.39,4.39,0,0,1,326,146l35.19-20.32a4.43,4.43,0,0,1,4.4,0l29.49,17a6.6,6.6,0,0,0,9-2.42l8.79-15.3a6.6,6.6,0,0,0-2.43-9L366.65,90.78a6.6,6.6,0,0,0-6.6,0l-19.8,11.43a6.61,6.61,0,0,0-3.3,5.72v10.28a.66.66,0,0,0,1,.57L341,117a.66.66,0,0,0,.33-.58v-7.24a4.41,4.41,0,0,1,2.2-3.81l17.6-10.16a4.43,4.43,0,0,1,4.4,0l40.77,23.48a4.4,4.4,0,0,1,1.62,6l-2.2,3.81a4.4,4.4,0,0,1-6,1.62L368,111.85a9.25,9.25,0,0,0-9.23,0L315.18,137A9.23,9.23,0,0,0,310.56,145Z"
     transform="translate(-89.89 -89.89)"
     id="path99" />
</svg>
