<?xml version="1.0" encoding="UTF-8" standalone="no"?>
<svg
   xmlns:dc="http://purl.org/dc/elements/1.1/"
   xmlns:cc="http://creativecommons.org/ns#"
   xmlns:rdf="http://www.w3.org/1999/02/22-rdf-syntax-ns#"
   xmlns:svg="http://www.w3.org/2000/svg"
   xmlns="http://www.w3.org/2000/svg"
   xmlns:sodipodi="http://sodipodi.sourceforge.net/DTD/sodipodi-0.dtd"
   xmlns:inkscape="http://www.inkscape.org/namespaces/inkscape"
   width="128"
   height="128"
   viewBox="0 0 33.866666 33.866668"
   version="1.1"
   id="svg8"
   inkscape:version="1.0.1 (3bc2e813f5, 2020-09-07)"
   sodipodi:docname="zerodays_logo_transparent.svg">
  <defs
     id="defs2">
    <filter
       style="color-interpolation-filters:sRGB;"
       inkscape:label="Drop Shadow"
       id="filter1254">
      <feFlood
         flood-opacity="0.301961"
         flood-color="rgb(20,20,20)"
         result="flood"
         id="feFlood1244" />
      <feComposite
         in="flood"
         in2="SourceGraphic"
         operator="in"
         result="composite1"
         id="feComposite1246" />
      <feGaussianBlur
         in="composite1"
         stdDeviation="0.5"
         result="blur"
         id="feGaussianBlur1248" />
      <feOffset
         dx="1.2"
         dy="1.2"
         result="offset"
         id="feOffset1250" />
      <feComposite
         in="SourceGraphic"
         in2="offset"
         operator="over"
         result="composite2"
         id="feComposite1252" />
    </filter>
  </defs>
  <sodipodi:namedview
     id="base"
     pagecolor="#ffffff"
     bordercolor="#666666"
     borderopacity="1.0"
     inkscape:pageopacity="0.0"
     inkscape:pageshadow="2"
     inkscape:zoom="3.959798"
     inkscape:cx="86.581916"
     inkscape:cy="74.655926"
     inkscape:document-units="px"
     inkscape:current-layer="layer1"
     inkscape:document-rotation="0"
     showgrid="false"
     units="px"
     inkscape:window-width="1452"
     inkscape:window-height="865"
     inkscape:window-x="233"
     inkscape:window-y="87"
     inkscape:window-maximized="0" />
  <metadata
     id="metadata5">
    <rdf:RDF>
      <cc:Work
         rdf:about="">
        <dc:format>image/svg+xml</dc:format>
        <dc:type
           rdf:resource="http://purl.org/dc/dcmitype/StillImage" />
        <dc:title></dc:title>
      </cc:Work>
    </rdf:RDF>
  </metadata>
  <g
     inkscape:label="Layer 1"
     inkscape:groupmode="layer"
     id="layer1">
    <g
       aria-label="0"
       id="text835"
       style="font-style:normal;font-weight:normal;font-size:10.5833px;line-height:1.25;font-family:sans-serif;fill:#ffffff;fill-opacity:1;stroke:none;stroke-width:0.264583;filter:url(#filter1254)">
      <path
         d="m 24.730281,16.101566 v -5.638938 q 0,-2.29857 -0.529167,-4.0679728 Q 23.671947,4.608716 22.679758,3.3850169 21.671033,2.1613178 20.215823,1.5329318 18.77715,0.88800931 16.925065,0.88800931 q -1.835549,0 -3.290758,0.64492249 -1.438674,0.628386 -2.430862,1.8520851 Q 10.19472,4.608716 9.6655529,6.3946552 9.1363857,8.164058 9.1363857,10.462628 v 5.638938 q 0,2.29857 0.5291672,4.084509 0.5291671,1.769402 1.5378921,2.976565 1.008725,1.240236 2.463935,1.868622 1.455209,0.611849 3.290758,0.611849 1.852085,0 3.290758,-0.628386 1.438674,-0.628386 2.430862,-1.852085 0.992189,-1.207163 1.521356,-2.976565 0.529167,-1.785939 0.529167,-4.084509 z M 12.21217,15.489716 q 0,-0.429948 0,-0.84336 0,-0.413412 0,-0.826824 V 9.7846324 q 0,-1.6867203 0.330729,-2.9600288 0.347266,-1.289845 1.041798,-2.1001323 0.578777,-0.6449225 1.405601,-0.9756519 0.84336,-0.347266 1.934767,-0.347266 1.074871,0 1.885158,0.314193 0.826824,0.314193 1.389064,0.942579 0.578777,0.6118496 0.909506,1.5378921 0.347266,0.9095061 0.479558,2.1001323 z m 9.442327,1.256772 q 0,1.769403 -0.363803,3.075784 -0.347266,1.306382 -1.107944,2.116669 -0.56224,0.595313 -1.372527,0.909506 -0.810287,0.314193 -1.852085,0.314193 -0.992188,0 -1.785939,-0.28112 -0.793751,-0.297657 -1.355991,-0.859897 -0.61185,-0.595313 -0.992189,-1.504819 -0.380338,-0.926042 -0.529167,-2.133205 l 9.359645,-7.160293 q 0,0.463021 0,1.174089 0,0.694532 0,0.942579 z"
         style="font-style:normal;font-variant:normal;font-weight:normal;font-stretch:normal;font-size:33.8667px;font-family:'Roboto Mono';-inkscape-font-specification:'Roboto Mono, Normal';font-variant-ligatures:normal;font-variant-caps:normal;font-variant-numeric:normal;font-variant-east-asian:normal;fill:#ffffff;stroke-width:0.264583"
         id="path1263" />
    </g>
  </g>
</svg>
